<svg width="24" height="25" viewBox="0 0 24 25" fill="none" xmlns="http://www.w3.org/2000/svg">
<g clip-path="url(#clip0_1_4580)">
<path d="M6.39996 0.533447C6.17906 0.533447 5.99996 0.712549 5.99996 0.933447V6.13345C5.77906 6.13345 5.59996 6.31255 5.59996 6.53345V13.3334C5.37906 13.3334 5.19996 13.5125 5.19996 13.7334V14.9334C4.97906 14.9334 4.79996 15.1125 4.79996 15.3334V23.3334C4.79996 23.9961 5.33726 24.5334 5.99996 24.5334H9.99996C10.6627 24.5334 11.2 23.9961 11.2 23.3334V15.3334C11.2 15.1125 11.0209 14.9334 10.8 14.9334V13.7334C10.8 13.5125 10.6209 13.3334 10.4 13.3334V6.53345C10.4 6.31255 10.2209 6.13345 9.99996 6.13345V4.13345C9.99761 2.14614 8.38726 0.535791 6.39996 0.533447ZM10.4 23.3334C10.4 23.5543 10.2209 23.7334 9.99996 23.7334H5.99996C5.77906 23.7334 5.59996 23.5543 5.59996 23.3334V15.7334H10.4V23.3334ZM5.99996 14.9334V14.1334H9.99996V14.9334H5.99996ZM6.39996 13.3334V6.93345H9.59996V13.3334H6.39996ZM6.79996 6.13345V1.36177C8.17671 1.56255 9.1982 2.74224 9.19996 4.13345V6.13345H6.79996Z" fill="#C4C4C4"/>
<path d="M19.2 24.1334V10.5334C19.2 9.87074 18.6627 9.33344 18 9.33344H14C13.3373 9.33344 12.8 9.87074 12.8 10.5334V24.1334C12.8 24.3543 12.9791 24.5334 13.2 24.5334H18.8C19.0209 24.5334 19.2 24.3543 19.2 24.1334ZM18.4 23.7334H13.6V10.5334C13.6 10.3125 13.7791 10.1334 14 10.1334H18C18.2209 10.1334 18.4 10.3125 18.4 10.5334V23.7334Z" fill="#C4C4C4"/>
</g>
<defs>
<clipPath id="clip0_1_4580">
<rect width="24" height="24" fill="white" transform="translate(0 0.533447)"/>
</clipPath>
</defs>
</svg>
