<svg width="24" height="25" viewBox="0 0 24 25" fill="none" xmlns="http://www.w3.org/2000/svg">
<g clip-path="url(#clip0_1_4585)">
<path d="M12.0001 24.2785C17.32 24.2785 21.6001 16.401 21.6001 9.87855C21.6001 3.86742 18.0112 0.278549 12.0001 0.278549C5.98897 0.278549 2.4001 3.86742 2.4001 9.87855C2.4001 16.401 6.68018 24.2785 12.0001 24.2785ZM4.06299 5.55863L5.42295 6.23851C5.62061 6.33734 5.86104 6.25706 5.95967 6.05941C6.0585 5.86156 5.97823 5.62132 5.78057 5.52249L4.43604 4.85062C5.86123 2.43246 8.47256 1.07855 12.0001 1.07855C15.5276 1.07855 18.139 2.43246 19.5657 4.84847L18.2214 5.52054C18.0235 5.61937 17.9433 5.8596 18.0421 6.05726C18.1409 6.25511 18.3812 6.33539 18.5788 6.23656L19.939 5.55648C20.5347 6.9182 20.8284 8.39261 20.8001 9.87855C20.8091 12.9608 19.9942 15.9893 18.4401 18.651L16.9794 17.9205C16.7815 17.8217 16.5413 17.902 16.4425 18.0998C16.3437 18.2975 16.4239 18.5377 16.6218 18.6366L18.0101 19.3305C16.2925 21.8889 14.0401 23.4785 12.0001 23.4785C9.96006 23.4785 7.70772 21.8889 5.99053 19.3305L7.37881 18.6385C7.57666 18.5399 7.65694 18.2994 7.55811 18.1018C7.45928 17.9039 7.21905 17.8239 7.02139 17.9225L5.56006 18.651C4.00596 15.9893 3.19112 12.9608 3.2001 9.87855C3.17256 8.3932 3.4669 6.91937 4.06299 5.55863Z" fill="#C4C4C4"/>
<path d="M8.3999 11.0786C9.96982 11.0786 11.1999 10.1985 11.1999 9.07855C11.1999 7.95863 9.96982 7.07855 8.3999 7.07855C6.82998 7.07855 5.5999 7.95863 5.5999 9.07855C5.5999 10.1985 6.82998 11.0786 8.3999 11.0786ZM8.3999 7.87855C9.48388 7.87855 10.3999 8.42816 10.3999 9.07855C10.3999 9.72894 9.48388 10.2786 8.3999 10.2786C7.31592 10.2786 6.3999 9.72894 6.3999 9.07855C6.3999 8.42816 7.31592 7.87855 8.3999 7.87855Z" fill="#C4C4C4"/>
<path d="M15.6 11.0786C17.1699 11.0786 18.4 10.1985 18.4 9.07855C18.4 7.95863 17.1699 7.07855 15.6 7.07855C14.03 7.07855 12.8 7.95863 12.8 9.07855C12.8 10.1985 14.03 11.0786 15.6 11.0786ZM15.6 7.87855C16.6839 7.87855 17.6 8.42816 17.6 9.07855C17.6 9.72894 16.6839 10.2786 15.6 10.2786C14.516 10.2786 13.6 9.72894 13.6 9.07855C13.6 8.42816 14.516 7.87855 15.6 7.87855Z" fill="#C4C4C4"/>
<path d="M10.8 13.0786C10.8 12.8577 10.6209 12.6786 10.4 12.6786C10.1791 12.6786 10 12.8577 10 13.0786C10 13.7625 10.8596 14.2786 12 14.2786C13.1404 14.2786 14 13.7625 14 13.0786C14 12.8577 13.8209 12.6786 13.6 12.6786C13.3791 12.6786 13.2 12.8577 13.2 13.0786C13.2 13.1782 12.7744 13.4786 12 13.4786C11.2256 13.4786 10.8 13.1782 10.8 13.0786Z" fill="#C4C4C4"/>
<path d="M12 15.0786C10.2056 15.0786 8.79996 15.9586 8.79996 17.0786C8.79996 18.1985 10.2056 19.0786 12 19.0786C13.7943 19.0786 15.2 18.1985 15.2 17.0786C15.2 15.9586 13.7943 15.0786 12 15.0786ZM12 18.2786C10.5855 18.2786 9.59996 17.6461 9.59996 17.0786C9.59996 16.511 10.5855 15.8786 12 15.8786C13.4144 15.8786 14.4 16.511 14.4 17.0786C14.4 17.6461 13.4144 18.2786 12 18.2786Z" fill="#C4C4C4"/>
</g>
<defs>
<clipPath id="clip0_1_4585">
<rect width="24" height="24" fill="white" transform="translate(0 0.278549)"/>
</clipPath>
</defs>
</svg>
