<svg width="24" height="24" viewBox="0 0 24 24" fill="none" xmlns="http://www.w3.org/2000/svg">
<g clip-path="url(#clip0_1_4569)">
<path d="M23.6 10.8H23.2V8.79997C23.2 8.57907 23.0209 8.39997 22.8 8.39997H22.36C22.2195 7.43962 21.3691 6.74548 20.4 6.79997C19.1027 6.79997 18.8695 6.48005 18.8293 6.382C18.7 6.06931 19.142 5.42204 19.482 5.08357C19.5969 4.96951 19.6314 4.79724 19.5697 4.64743C19.508 4.49783 19.3619 4.40017 19.2 4.39997C17.9238 4.4115 16.6695 4.73357 15.5455 5.33845C13.8402 3.70056 11.5645 2.79021 9.2 2.79997C4.11895 2.79997 0 6.91911 0 12C0 17.081 4.11895 21.2 9.2 21.2H22C23.1041 21.1988 23.9986 20.3041 24 19.2V11.2C24 10.9791 23.8209 10.8 23.6 10.8ZM9.2 9.19997H22.4V10.8H8.8V9.19997H9.2ZM18.0893 6.68611C18.3424 7.30134 19.0984 7.59997 20.4 7.59997C20.9242 7.55193 21.4062 7.8906 21.5389 8.39997H12.1039C12.7115 8.07615 13.298 7.68357 13.8977 7.28279C15.2199 6.39841 16.5813 5.48767 18.3377 5.25603C18.0355 5.66755 17.9438 6.19685 18.0893 6.68611ZM0.8 12C0.805078 7.36286 4.56289 3.60505 9.2 3.59997C11.2705 3.59353 13.2689 4.36013 14.8035 5.74997C14.3313 6.03005 13.8836 6.32966 13.4527 6.61775C12.0828 7.53454 10.7885 8.39997 9.2 8.39997H8.4C8.1791 8.39997 8 8.57907 8 8.79997V10.8H7.6C7.3791 10.8 7.2 10.9791 7.2 11.2V19.2C7.20156 19.5617 7.30254 19.9162 7.4916 20.2244C3.59707 19.4099 0.805469 15.9789 0.8 12ZM23.2 19.2C23.2 19.8629 22.6627 20.4 22 20.4H9.2C8.5373 20.4 8 19.8629 8 19.2V11.6H23.2V19.2Z" fill="#C4C4C4"/>
<path d="M15.6 13.2C13.1329 13.2 11.2 14.4301 11.2 16C11.2 17.5701 13.1329 18.8 15.6 18.8C18.0672 18.8 20 17.5701 20 16C20 14.4301 18.0672 13.2 15.6 13.2ZM15.6 18C13.6489 18 12 17.084 12 16C12 14.916 13.6489 14 15.6 14C17.5512 14 19.2 14.916 19.2 16C19.2 17.084 17.5512 18 15.6 18Z" fill="#C4C4C4"/>
</g>
<defs>
<clipPath id="clip0_1_4569">
<rect width="24" height="24" fill="white"/>
</clipPath>
</defs>
</svg>
