<svg width="24" height="25" viewBox="0 0 24 25" fill="none" xmlns="http://www.w3.org/2000/svg">
<g clip-path="url(#clip0_1_4593)">
<path d="M19.0272 6.57576C18.3614 5.8166 17.5895 5.15762 16.7352 4.61896H21.1996C21.8623 4.61896 22.3996 4.08167 22.3996 3.41898V1.81901C22.3996 1.15633 21.8623 0.619034 21.1996 0.619034H1.19998C0.537295 0.619034 0 1.15633 0 1.81901V3.41898C0 4.08167 0.537295 4.61896 1.19998 4.61896H5.65986C2.20387 6.78904 0.336322 10.7798 0.884554 14.8237C1.43279 18.8673 4.29543 22.2169 8.20454 23.3885C12.1135 24.56 16.3464 23.3372 19.0284 20.2614C21.993 19.2982 24 16.5357 24 13.4186C24 10.3017 21.993 7.53903 19.0284 6.57576H19.0272ZM22.9888 11.8188H10.6106C11.3367 8.99408 13.8831 7.0195 16.7997 7.0195C19.7162 7.0195 22.2627 8.99408 22.9888 11.8188ZM9.59983 13.4188C9.60295 16.3113 11.3342 18.9222 13.9974 20.0507C10.984 21.3243 7.49069 20.4062 5.49287 17.8154C3.49505 15.2248 3.49505 11.6128 5.49287 9.0222C7.49069 6.43143 10.984 5.51328 13.9974 6.78689C11.3342 7.91558 9.60295 10.5263 9.59983 13.4188ZM10.3998 13.4188C10.4016 13.1512 10.4201 12.884 10.4555 12.6188H23.1439C23.2181 13.1497 23.2181 13.6881 23.1439 14.2188H10.4555C10.4201 13.9536 10.4016 13.6864 10.3998 13.4188ZM0.799986 3.41898V1.81901C0.799986 1.59812 0.979084 1.41902 1.19998 1.41902H21.1996C21.4205 1.41902 21.5996 1.59812 21.5996 1.81901V3.41898C21.5996 3.63988 21.4205 3.81898 21.1996 3.81898H1.19998C0.979084 3.81898 0.799986 3.63988 0.799986 3.41898ZM11.1998 23.0186C6.65262 23.0202 2.72808 19.8314 1.79919 15.3801C0.870102 10.9286 3.19154 6.43631 7.35983 4.61896H15.0398C15.9726 5.0295 16.8343 5.58515 17.5932 6.26542C17.3298 6.23534 17.0649 6.21991 16.7997 6.21893C16.2161 6.22128 15.6351 6.29471 15.0693 6.43807C15.0456 6.41268 15.0187 6.39022 14.9894 6.37166C11.6236 4.5633 7.44869 5.3875 5.02276 8.3394C2.59663 11.2911 2.59663 15.5465 5.02276 18.4984C7.44869 21.4501 11.6236 22.2743 14.9894 20.4659C15.0189 20.4474 15.0458 20.4251 15.0693 20.3995C15.8941 20.6124 16.7513 20.671 17.5973 20.5718C15.8388 22.1474 13.5609 23.0186 11.1998 23.0186ZM16.7997 19.8187C13.8849 19.8132 11.3412 17.8406 10.6106 15.0188H22.9888C22.2582 17.8406 19.7145 19.8132 16.7997 19.8187Z" fill="#C4C4C4"/>
</g>
<defs>
<clipPath id="clip0_1_4593">
<rect width="24" height="24" fill="white" transform="translate(0 0.218643)"/>
</clipPath>
</defs>
</svg>
