<svg width="21" height="20" viewBox="0 0 21 20" fill="none" xmlns="http://www.w3.org/2000/svg">
<path d="M2.66708 19C2.66708 19.5522 3.11467 20 3.66708 20H18.3337C18.886 20 19.3337 19.5522 19.3337 19V1C19.3337 0.447754 18.886 0 18.3337 0H13.6671C13.1147 0 12.6671 0.447754 12.6671 1V10H9.01734L9.33375 3.68327C9.3383 3.59212 9.3051 3.50293 9.24211 3.43685C9.17912 3.37061 9.09172 3.33317 9.00041 3.33333H2.33375C2.24227 3.33317 2.15487 3.37061 2.09188 3.43685C2.0289 3.50293 1.99569 3.59212 2.00041 3.68327L2.66708 17.007V19ZM3.33375 19V17.3333H6.33375V19C6.33472 19.1138 6.35556 19.2266 6.39494 19.3333H3.66708C3.48283 19.3333 3.33375 19.1841 3.33375 19ZM15.3337 10.6667C15.5178 10.6667 15.6671 10.8159 15.6671 11V13H7.00041V11C7.00041 10.8159 7.1495 10.6667 7.33375 10.6667H15.3337ZM7.00041 13.6667H15.6671V18H7.00041V13.6667ZM7.33375 19.3333C7.1495 19.3333 7.00041 19.1841 7.00041 19V18.6667H15.6671V19C15.6671 19.1841 15.5178 19.3333 15.3337 19.3333H7.33375ZM13.3337 1C13.3337 0.815918 13.4828 0.666667 13.6671 0.666667H18.3337C18.5178 0.666667 18.6671 0.815918 18.6671 1V4.66667H13.3337V1ZM13.3337 5.33333H18.6671V19C18.6671 19.1841 18.5178 19.3333 18.3337 19.3333H16.2724C16.3118 19.2266 16.3326 19.1138 16.3337 19V11C16.3337 10.4478 15.886 10 15.3337 10H13.3337V5.33333ZM8.64999 4L8.35002 10H7.33375C6.78134 10 6.33375 10.4478 6.33375 11V16.6667H3.31731L2.68401 4H8.64999Z" fill="#C4C4C4"/>
</svg>
