<svg width="10" height="25" viewBox="0 0 10 25" fill="none" xmlns="http://www.w3.org/2000/svg">
<path d="M1.80001 24.576H8.20001C8.8627 24.576 9.40001 24.0387 9.40001 23.3761V9.77605C9.40001 9.55515 9.2209 9.37605 9.00001 9.37605V0.97605C9.00001 0.755151 8.8209 0.57605 8.60001 0.57605H1.40001C1.17911 0.57605 1.00001 0.755151 1.00001 0.97605V9.37605C0.779108 9.37605 0.600006 9.55515 0.600006 9.77605V23.3761C0.600006 24.0387 1.13731 24.576 1.80001 24.576ZM8.60001 23.3761C8.60001 23.5969 8.4209 23.7761 8.20001 23.7761H1.80001C1.57911 23.7761 1.40001 23.5969 1.40001 23.3761V10.1761H8.60001V23.3761ZM6.20001 5.37605H3.80001V2.97605H6.20001V5.37605ZM3.40001 6.17605H6.60001V6.97605H3.40001V6.17605ZM3.00001 7.77605H7.00001V9.37605H3.00001V7.77605ZM1.80001 1.37605H8.20001V9.37605H7.80001V7.37605C7.80001 7.15515 7.6209 6.97605 7.40001 6.97605V5.77605C7.40001 5.55515 7.2209 5.37605 7.00001 5.37605V2.57605C7.00001 2.35515 6.8209 2.17605 6.60001 2.17605H3.40001C3.17911 2.17605 3.00001 2.35515 3.00001 2.57605V5.37605C2.77911 5.37605 2.60001 5.55515 2.60001 5.77605V6.97605C2.37911 6.97605 2.20001 7.15515 2.20001 7.37605V9.37605H1.80001V1.37605Z" fill="black"/>
</svg>
