<svg width="63" height="190" viewBox="0 0 63 190" fill="none" xmlns="http://www.w3.org/2000/svg">
<g opacity="0.5">
<ellipse rx="3.00634" ry="3.00523" transform="matrix(1 -8.74228e-08 -8.74228e-08 -1 -1.33448 186.925)" fill="white" fill-opacity="0.8"/>
<ellipse rx="3.00634" ry="3.00523" transform="matrix(1 -8.74228e-08 -8.74228e-08 -1 19.1084 186.925)" fill="white" fill-opacity="0.8"/>
<ellipse rx="3.00634" ry="3.00523" transform="matrix(1 -8.74228e-08 -8.74228e-08 -1 39.5513 186.925)" fill="white" fill-opacity="0.8"/>
<ellipse rx="3.00634" ry="3.00523" transform="matrix(1 -8.74228e-08 -8.74228e-08 -1 59.9936 186.925)" fill="white" fill-opacity="0.8"/>
<ellipse rx="3.00634" ry="3.00523" transform="matrix(1 -8.74228e-08 -8.74228e-08 -1 -1.33448 166.489)" fill="white" fill-opacity="0.8"/>
<ellipse rx="3.00634" ry="3.00523" transform="matrix(1 -8.74228e-08 -8.74228e-08 -1 19.1084 166.489)" fill="white" fill-opacity="0.8"/>
<ellipse rx="3.00634" ry="3.00523" transform="matrix(1 -8.74228e-08 -8.74228e-08 -1 39.5508 166.489)" fill="white" fill-opacity="0.8"/>
<ellipse rx="3.00634" ry="3.00523" transform="matrix(1 -8.74228e-08 -8.74228e-08 -1 59.9932 166.489)" fill="white" fill-opacity="0.8"/>
<ellipse rx="3.00634" ry="3.00523" transform="matrix(1 -8.74228e-08 -8.74228e-08 -1 -1.33448 146.054)" fill="white" fill-opacity="0.8"/>
<ellipse rx="3.00634" ry="3.00523" transform="matrix(1 -8.74228e-08 -8.74228e-08 -1 19.1084 146.054)" fill="white" fill-opacity="0.8"/>
<ellipse rx="3.00634" ry="3.00523" transform="matrix(1 -8.74228e-08 -8.74228e-08 -1 39.5508 146.054)" fill="white" fill-opacity="0.8"/>
<ellipse rx="3.00634" ry="3.00523" transform="matrix(1 -8.74228e-08 -8.74228e-08 -1 59.9932 146.054)" fill="white" fill-opacity="0.8"/>
<ellipse rx="3.00634" ry="3.00523" transform="matrix(1 -8.74228e-08 -8.74228e-08 -1 -1.33448 125.618)" fill="white" fill-opacity="0.8"/>
<ellipse rx="3.00634" ry="3.00523" transform="matrix(1 -8.74228e-08 -8.74228e-08 -1 19.1084 125.618)" fill="white" fill-opacity="0.8"/>
<ellipse rx="3.00634" ry="3.00523" transform="matrix(1 -8.74228e-08 -8.74228e-08 -1 39.5508 125.618)" fill="white" fill-opacity="0.8"/>
<ellipse rx="3.00634" ry="3.00523" transform="matrix(1 -8.74228e-08 -8.74228e-08 -1 59.9932 125.618)" fill="white" fill-opacity="0.8"/>
<ellipse rx="3.00634" ry="3.00523" transform="matrix(1 -8.74228e-08 -8.74228e-08 -1 -1.33448 105.183)" fill="white" fill-opacity="0.8"/>
<ellipse rx="3.00634" ry="3.00523" transform="matrix(1 -8.74228e-08 -8.74228e-08 -1 19.1084 105.183)" fill="white" fill-opacity="0.8"/>
<ellipse rx="3.00634" ry="3.00523" transform="matrix(1 -8.74228e-08 -8.74228e-08 -1 39.5508 105.183)" fill="white" fill-opacity="0.8"/>
<ellipse rx="3.00634" ry="3.00523" transform="matrix(1 -8.74228e-08 -8.74228e-08 -1 59.9932 105.183)" fill="white" fill-opacity="0.8"/>
<ellipse rx="3.00634" ry="3.00523" transform="matrix(1 -8.74228e-08 -8.74228e-08 -1 -1.33448 84.7473)" fill="white" fill-opacity="0.8"/>
<ellipse rx="3.00634" ry="3.00523" transform="matrix(1 -8.74228e-08 -8.74228e-08 -1 19.1084 84.7473)" fill="white" fill-opacity="0.8"/>
<ellipse rx="3.00634" ry="3.00523" transform="matrix(1 -8.74228e-08 -8.74228e-08 -1 39.5508 84.7473)" fill="white" fill-opacity="0.8"/>
<ellipse rx="3.00634" ry="3.00523" transform="matrix(1 -8.74228e-08 -8.74228e-08 -1 59.9932 84.7473)" fill="white" fill-opacity="0.8"/>
<ellipse rx="3.00634" ry="3.00523" transform="matrix(1 -8.74228e-08 -8.74228e-08 -1 -1.33448 64.3117)" fill="white" fill-opacity="0.8"/>
<ellipse rx="3.00634" ry="3.00523" transform="matrix(1 -8.74228e-08 -8.74228e-08 -1 19.1084 64.3117)" fill="white" fill-opacity="0.8"/>
<ellipse rx="3.00634" ry="3.00523" transform="matrix(1 -8.74228e-08 -8.74228e-08 -1 39.5508 64.3117)" fill="white" fill-opacity="0.8"/>
<ellipse rx="3.00634" ry="3.00523" transform="matrix(1 -8.74228e-08 -8.74228e-08 -1 59.9932 64.3117)" fill="white" fill-opacity="0.8"/>
<ellipse rx="3.00634" ry="3.00523" transform="matrix(1 -8.74228e-08 -8.74228e-08 -1 -1.33448 43.8763)" fill="white" fill-opacity="0.8"/>
<ellipse rx="3.00634" ry="3.00523" transform="matrix(1 -8.74228e-08 -8.74228e-08 -1 19.1084 43.8763)" fill="white" fill-opacity="0.8"/>
<ellipse rx="3.00634" ry="3.00523" transform="matrix(1 -8.74228e-08 -8.74228e-08 -1 39.5508 43.8763)" fill="white" fill-opacity="0.8"/>
<ellipse rx="3.00634" ry="3.00523" transform="matrix(1 -8.74228e-08 -8.74228e-08 -1 59.9932 43.8762)" fill="white" fill-opacity="0.8"/>
<ellipse rx="3.00634" ry="3.00523" transform="matrix(1 -8.74228e-08 -8.74228e-08 -1 -1.33448 23.4408)" fill="white" fill-opacity="0.8"/>
<ellipse rx="3.00634" ry="3.00523" transform="matrix(1 -8.74228e-08 -8.74228e-08 -1 19.1084 23.4408)" fill="white" fill-opacity="0.8"/>
<ellipse rx="3.00634" ry="3.00523" transform="matrix(1 -8.74228e-08 -8.74228e-08 -1 39.5508 23.4408)" fill="white" fill-opacity="0.8"/>
<ellipse rx="3.00634" ry="3.00523" transform="matrix(1 -8.74228e-08 -8.74228e-08 -1 59.9932 23.4408)" fill="white" fill-opacity="0.8"/>
<ellipse rx="3.00634" ry="3.00523" transform="matrix(1 -8.74228e-08 -8.74228e-08 -1 -1.33448 3.00524)" fill="white" fill-opacity="0.8"/>
<ellipse rx="3.00634" ry="3.00523" transform="matrix(1 -8.74228e-08 -8.74228e-08 -1 19.1084 3.00524)" fill="white" fill-opacity="0.8"/>
<ellipse rx="3.00634" ry="3.00523" transform="matrix(1 -8.74228e-08 -8.74228e-08 -1 39.5508 3.00524)" fill="white" fill-opacity="0.8"/>
<ellipse rx="3.00634" ry="3.00523" transform="matrix(1 -8.74228e-08 -8.74228e-08 -1 59.9932 3.00521)" fill="white" fill-opacity="0.8"/>
</g>
</svg>
